<?xml version="1.0" standalone="no"?>
<svg viewBox="0 0 200 200" xmlns="http://www.w3.org/2000/svg">
  <path fill="#FA4D56" d="M9.3,-24.7C9.5,-16,5.5,-8.4,13.7,-4.5C21.9,-0.5,42.5,-0.3,52.7,5.9C62.9,12,62.7,24.1,52.7,24.9C42.7,25.7,22.8,15.3,12.3,12.2C1.9,9,0.9,13.1,-6.6,24.6C-14.2,36.1,-28.4,55,-30.2,53.1C-31.9,51.2,-21.2,28.6,-18.2,16.3C-15.2,4,-20,2,-20.4,-0.2C-20.8,-2.5,-16.9,-5,-17.9,-13.8C-18.9,-22.7,-24.7,-37.9,-22.6,-45.5C-20.4,-53.1,-10.2,-53.1,-2.8,-48.2C4.5,-43.3,9.1,-33.4,9.3,-24.7Z" transform="translate(100 100)" />
</svg>
