<?xml version="1.0" standalone="no"?>
<svg viewBox="0 0 200 200" xmlns="http://www.w3.org/2000/svg">
  <path fill="#08BDBA" d="M33.1,-51.2C45.7,-50,60.7,-46.9,67.1,-38C73.6,-29.2,71.3,-14.6,66,-3.1C60.6,8.4,52.1,16.8,45.6,25.4C39,34,34.4,42.8,27.2,45.7C19.9,48.5,9.9,45.3,-2,48.8C-13.9,52.2,-27.8,62.2,-36.2,60.1C-44.6,57.9,-47.6,43.5,-56.7,31.5C-65.9,19.4,-81.3,9.7,-84.6,-1.9C-87.9,-13.6,-79.2,-27.1,-70.9,-40.7C-62.6,-54.2,-54.8,-67.7,-43,-69.5C-31.3,-71.2,-15.6,-61.1,-2.7,-56.4C10.2,-51.7,20.4,-52.4,33.1,-51.2Z" transform="translate(100 100)" />
</svg>
